<svg width="279" height="41" viewBox="0 0 279 41" fill="none" xmlns="http://www.w3.org/2000/svg">
<path d="M20.3 40.6C9.10001 40.6 -0.0999859 31.5 1.41327e-05 20.2C0.100014 9.10001 9.10001 -0.0999859 20.4 1.41482e-05C31.5 0.100014 40.6 9.20001 40.6 20.5C40.5 31.5 31.5 40.6 20.3 40.6Z" fill="#02D2D6"/>
<path d="M51.8339 28.283H54.9889V20.3333H63.8578V17.7248H54.9889V12.9053H64.4044V10.272H51.8339V28.283ZM66.0956 10.272V13.2531H69.0519V10.272H66.0956ZM66.0956 14.9176V28.283H69.0519V14.9176H66.0956ZM75.3354 10.272H72.3791V28.283H75.3354V10.272ZM90.7362 22.445C91.0095 17.9733 88.4258 14.6195 84.3267 14.6195C80.5506 14.6195 77.7682 17.4764 77.7682 21.5009C77.7682 25.3516 80.2277 28.606 84.5255 28.606C87.9538 28.606 89.9909 26.4198 90.5871 24.2833H87.6805C87.1588 25.5503 85.9664 26.1465 84.4013 26.1465C82.712 26.1465 80.973 24.9292 80.7742 22.445H90.7362ZM84.3267 16.9299C86.0657 16.9299 87.6557 18.1968 87.7302 20.2836H80.7742C81.0475 17.7745 82.9355 16.9299 84.3267 16.9299ZM98.9553 14.6195C94.9556 14.6195 92.3968 17.6503 92.3968 21.6251C92.3968 25.6 94.9556 28.606 98.8311 28.606C101.688 28.606 104.446 26.8421 105.042 23.7119H102.16C101.763 25.5006 100.346 26.1465 98.8807 26.1465C97.1417 26.1465 95.4524 24.7802 95.4524 21.6003C95.4524 18.4453 97.0921 17.0789 98.9553 17.0789C100.57 17.0789 101.787 18.0726 102.061 19.4887H104.942C104.421 16.5324 101.887 14.6195 98.9553 14.6195ZM109.548 21.6251C109.548 18.5446 111.188 17.0292 113.076 17.0292C114.964 17.0292 116.604 18.5446 116.604 21.6251C116.604 24.7305 114.964 26.1962 113.076 26.1962C111.188 26.1962 109.548 24.7305 109.548 21.6251ZM113.076 14.6195C109.822 14.6195 106.493 16.8056 106.493 21.6251C106.493 26.4695 109.822 28.606 113.076 28.606C116.33 28.606 119.659 26.4695 119.659 21.6251C119.659 16.8056 116.33 14.6195 113.076 14.6195ZM122.089 10.272V13.2531H125.045V10.272H122.089ZM122.089 14.9176V28.283H125.045V14.9176H122.089ZM131.329 14.9176H128.372V28.283H131.329V21.178C131.329 18.7682 132.149 17.0292 134.434 17.0292C136.72 17.0292 136.968 18.8179 136.968 20.6066V28.283H139.924V19.8862C139.924 16.7063 138.608 14.6195 135.378 14.6195C133.49 14.6195 132.099 15.3896 131.329 16.7808V14.9176Z" fill="#181818"/>
<path d="M22.8 18.4C24.6 18.7 26.3 18.9 28.1 19.1C28.2 18.6 28.4 18.1 28.5 17.6C26.7 17.3 24.9 17.1 23 16.8C23.6 14.6 24.2 12.4 24.9 10.3C25.1 9.6 25.6 9 26.1 8.4C26.8 7.7 27.7 7.9 28.3 8.6C28.5 8.9 28.8 9.3 29 9.5C29.4 9.9 29.9 10 30.3 9.7C30.5 9.5 30.5 8.9 30.6 8.5C30.6 8.3 30.4 8.2 30.3 8C29.7 7.3 28.8 7 27.9 7C25.9 6.9 24.4 7.9 23.3 9.5C22.2 11 21.7 12.9 21.1 14.7C20.9 15.2 20.8 15.8 20.6 16.3C18.6 16 16.7 15.7 14.8 15.5C14.7 16 14.7 16.5 14.6 17C16.5 17.3 18.4 17.6 20.3 17.9C20 19 19.8 20 19.6 21C17.7 20.7 16 20.5 14.2 20.2C14.1 20.8 14.1 21.2 14 21.7C15.8 22 17.5 22.2 19.3 22.5C19.3 22.7 19.3 22.8 19.3 22.9C18.7 25.3 18.2 27.6 17.6 30C17.3 31.1 16.8 32.2 15.9 33C15.1 33.6 14.3 33.5 13.7 32.7C13.4 32.3 13.2 31.9 12.9 31.7C12.6 31.5 12.1 31.4 11.9 31.6C11.6 31.8 11.4 32.3 11.5 32.7C11.5 33 11.8 33.4 12.1 33.6C13 34.3 14.2 34.4 15.3 34.2C17.2 33.8 18.5 32.6 19.4 31C20 29.7 20.5 28.3 21 26.9C21.4 25.6 21.7 24.3 22.1 23C24 23.3 25.8 23.5 27.6 23.8C27.8 23.3 27.9 22.8 28 22.3C26.1 22 24.2 21.7 22.3 21.5C22.4 20.4 22.6 19.5 22.8 18.4Z" fill="white"/>
<path d="M150.714 28.6052H153.248V20.4319H161.893V18.2458H153.248V12.7804H162.415V10.5942H150.714V28.6052ZM165.807 21.9722C165.807 18.3203 167.745 17.0036 169.807 17.0036C171.869 17.0036 173.807 18.3948 173.807 21.9722C173.807 25.4005 171.869 26.9408 169.807 26.9408C167.745 26.9408 165.807 25.5496 165.807 21.9722ZM169.807 15.0162C166.702 15.0162 163.398 17.1279 163.398 21.9722C163.398 26.8165 166.702 28.9282 169.807 28.9282C172.912 28.9282 176.217 26.8165 176.217 21.9722C176.217 17.1279 172.912 15.0162 169.807 15.0162ZM187.193 28.6052H189.454V15.2398H187.193V22.5933C187.193 25.4999 185.951 26.9656 183.79 26.9656C181.305 26.9656 180.982 25.1769 180.982 23.115V15.2398H178.722V23.7857C178.722 26.8414 179.914 28.9282 182.995 28.9282C185.206 28.9282 186.423 27.9593 187.193 26.6923V28.6052ZM195.301 15.2398H193.04V28.6052H195.301V21.3511C195.301 18.4445 196.642 16.9788 198.829 16.9788C201.412 16.9788 201.76 18.7675 201.76 20.8294V28.6052H204.021V20.1587C204.021 17.103 202.853 15.0162 199.623 15.0162C197.363 15.0162 196.071 15.9851 195.301 17.2521V15.2398ZM216.569 17.3514C215.75 15.9354 214.358 15.0162 212.197 15.0162C209.117 15.0162 206.483 17.5999 206.483 21.9722C206.483 26.4191 209.117 28.9282 212.197 28.9282C214.358 28.9282 215.75 28.009 216.569 26.593V28.6052H218.83V10.5942H216.569V17.3514ZM216.669 21.9722C216.669 25.4999 214.781 26.9904 212.768 26.9904C210.458 26.9904 208.943 25.2266 208.943 21.9722C208.943 18.7178 210.458 16.954 212.768 16.954C214.781 16.954 216.669 18.4445 216.669 21.9722ZM230.817 23.0156C230.817 26.1706 228.805 27.1395 226.693 27.1395C225.078 27.1395 224.11 26.2948 224.11 25.0279C224.11 23.1895 226.718 22.5684 230.817 22.1709V23.0156ZM226.196 28.9282C228.581 28.9282 229.948 28.1581 230.767 26.7669C230.792 27.5618 230.867 28.1084 230.941 28.6052H233.227C232.954 27.3382 232.854 25.8228 232.879 23.5621L232.904 20.4816C232.929 16.6807 231.339 14.9665 227.588 14.9665C225.004 14.9665 222.42 16.5813 222.221 19.4631H224.557C224.656 17.7986 225.724 16.8049 227.612 16.8049C229.302 16.8049 230.643 17.5999 230.643 20.0593V20.3823C225.178 20.9785 221.6 21.9225 221.6 25.0775C221.6 27.537 223.687 28.9282 226.196 28.9282ZM236.918 15.2398H234.807V17.0533H236.918V25.2514C236.918 28.0338 237.515 28.6052 240.073 28.6052H241.713V26.7172H240.57C239.278 26.7172 239.179 26.3694 239.179 24.9782V17.0533H241.713V15.2398H239.179V11.886H236.918V15.2398ZM244.594 15.2398V28.6052H246.854V15.2398H244.594ZM244.594 10.5942V13.3269H246.854V10.5942H244.594ZM251.981 21.9722C251.981 18.3203 253.919 17.0036 255.981 17.0036C258.042 17.0036 259.98 18.3948 259.98 21.9722C259.98 25.4005 258.042 26.9408 255.981 26.9408C253.919 26.9408 251.981 25.5496 251.981 21.9722ZM255.981 15.0162C252.875 15.0162 249.571 17.1279 249.571 21.9722C249.571 26.8165 252.875 28.9282 255.981 28.9282C259.086 28.9282 262.39 26.8165 262.39 21.9722C262.39 17.1279 259.086 15.0162 255.981 15.0162ZM267.355 15.2398H265.094V28.6052H267.355V21.3511C267.355 18.4445 268.696 16.9788 270.882 16.9788C273.466 16.9788 273.814 18.7675 273.814 20.8294V28.6052H276.074V20.1587C276.074 17.103 274.907 15.0162 271.677 15.0162C269.417 15.0162 268.125 15.9851 267.355 17.2521V15.2398Z" fill="#02D2D6"/>
</svg>
